<svg width="16" height="16" viewBox="0 0 16 16" fill="none" xmlns="http://www.w3.org/2000/svg">
<path d="M15.281 14.2193C15.3507 14.289 15.406 14.3717 15.4437 14.4628C15.4814 14.5538 15.5008 14.6514 15.5008 14.7499C15.5008 14.8485 15.4814 14.9461 15.4437 15.0371C15.406 15.1281 15.3507 15.2109 15.281 15.2806C15.2114 15.3502 15.1286 15.4055 15.0376 15.4432C14.9465 15.4809 14.849 15.5003 14.7504 15.5003C14.6519 15.5003 14.5543 15.4809 14.4632 15.4432C14.3722 15.4055 14.2895 15.3502 14.2198 15.2806L8.00042 9.06024L1.78104 15.2806C1.64031 15.4213 1.44944 15.5003 1.25042 15.5003C1.05139 15.5003 0.860523 15.4213 0.719792 15.2806C0.579062 15.1398 0.5 14.949 0.5 14.7499C0.5 14.5509 0.579062 14.36 0.719792 14.2193L6.9401 7.99993L0.719792 1.78055C0.579062 1.63982 0.5 1.44895 0.5 1.24993C0.5 1.05091 0.579062 0.860034 0.719792 0.719304C0.860523 0.578573 1.05139 0.499512 1.25042 0.499512C1.44944 0.499512 1.64031 0.578573 1.78104 0.719304L8.00042 6.93962L14.2198 0.719304C14.3605 0.578573 14.5514 0.499512 14.7504 0.499512C14.9494 0.499512 15.1403 0.578573 15.281 0.719304C15.4218 0.860034 15.5008 1.05091 15.5008 1.24993C15.5008 1.44895 15.4218 1.63982 15.281 1.78055L9.06073 7.99993L15.281 14.2193Z" fill="#222222"/>
</svg>
