<svg width="10" height="7" viewBox="0 0 10 7" fill="none" xmlns="http://www.w3.org/2000/svg">
<path d="M5.6002 6.14997C5.4831 6.26722 5.32424 6.33316 5.15854 6.33331H4.84187C4.67652 6.33139 4.5183 6.26571 4.4002 6.14997L0.125202 1.86664C0.0463222 1.78841 0.00195312 1.68191 0.00195312 1.57081C0.00195312 1.45971 0.0463222 1.35321 0.125202 1.27497L0.716869 0.683308C0.793672 0.604921 0.898794 0.560748 1.00854 0.560748C1.11828 0.560748 1.2234 0.604921 1.3002 0.683308L5.0002 4.39164L8.7002 0.683308C8.77844 0.604428 8.88494 0.560059 8.99604 0.560059C9.10713 0.560059 9.21363 0.604428 9.29187 0.683308L9.8752 1.27497C9.95408 1.35321 9.99845 1.45971 9.99845 1.57081C9.99845 1.68191 9.95408 1.78841 9.8752 1.86664L5.6002 6.14997Z" fill="white"/>
</svg>
