<svg width="16" height="14" viewBox="0 0 16 14" fill="none" xmlns="http://www.w3.org/2000/svg">
<path d="M13.8931 1.57333C13.5526 1.23267 13.1483 0.962427 12.7033 0.778052C12.2584 0.593677 11.7814 0.498779 11.2998 0.498779C10.8181 0.498779 10.3412 0.593677 9.89618 0.778052C9.45121 0.962427 9.04693 1.23267 8.70642 1.57333L7.99975 2.28L7.29309 1.57333C6.60529 0.885535 5.67244 0.499136 4.69975 0.499136C3.72707 0.499136 2.79422 0.885535 2.10642 1.57333C1.41863 2.26112 1.03223 3.19397 1.03223 4.16666C1.03223 5.13935 1.41863 6.0722 2.10642 6.76L2.81309 7.46666L7.99975 12.6533L13.1864 7.46666L13.8931 6.76C14.2338 6.41949 14.504 6.01521 14.6884 5.57023C14.8727 5.12526 14.9676 4.64832 14.9676 4.16666C14.9676 3.685 14.8727 3.20807 14.6884 2.76309C14.504 2.31812 14.2338 1.91383 13.8931 1.57333Z" stroke="black" stroke-linecap="round" stroke-linejoin="round"/>
</svg>
